# xmcd CD database file
#
# Track frame offsets:
#	150
#	18770
#	37695
#	65110
#	84655
#	106280
#	124087
#	142520
#	160010
#	180495
#
# Disc length: 2986 seconds
#
# Revision: 0
# Processed by: cddbd v1.5.1PL0 Copyright (c) Steve Scherf et al.
# Submitted via: CDex 1.51
#
DISCID=6e0ba80a
DTITLE=吉岡忍 - PINUPS
DYEAR=1999
DGENRE=JPop
TTITLE0=素晴らしいアイデア
TTITLE1=私の朝は朝帰りの朝
TTITLE2=スーパースター
TTITLE3=あんなに愛しあっていたふたりなのに
TTITLE4=叫びとささやき(Alternate Mix)
TTITLE5=やさしい雨
TTITLE6=スーパーガール
TTITLE7=恋に似ている
TTITLE8=アイム・ア･ボーイ
TTITLE9=さようなら
EXTD=YEAR: 1999
EXTT0=
EXTT1=
EXTT2=
EXTT3=
EXTT4=
EXTT5=
EXTT6=
EXTT7=
EXTT8=
EXTT9=
PLAYORDER=
